<?xml version="1.0" encoding="UTF-8"?>
<!DOCTYPE svg PUBLIC "-//W3C//DTD SVG 1.1//EN" "http://www.w3.org/Graphics/SVG/1.1/DTD/svg11.dtd">
<!-- Creator: CorelDRAW X7 -->
<svg xmlns="http://www.w3.org/2000/svg" xml:space="preserve" width="109.984mm" height="98.8749mm" version="1.1" style="shape-rendering:geometricPrecision; text-rendering:geometricPrecision; image-rendering:optimizeQuality; fill-rule:evenodd; clip-rule:evenodd"
viewBox="0 0 10998 9887"
 xmlns:xlink="http://www.w3.org/1999/xlink">
 <defs>
  <style type="text/css">
   <![CDATA[
    .fil3 {fill:#FEFEFE}
    .fil0 {fill:#2B2A29}
    .fil6 {fill:#E31E24}
    .fil1 {fill:black}
    .fil2 {fill:white}
    .fil5 {fill:#2B2A29;fill-rule:nonzero}
    .fil4 {fill:#E31E24;fill-rule:nonzero}
   ]]>
  </style>
 </defs>
 <g id="Layer_x0020_1">
  <metadata id="CorelCorpID_0Corel-Layer"/>
  <g id="_352039789168">
   <g>
    <path class="fil0" d="M6227 1370c-3,-32 -10,-56 -18,-84 -7,-25 -15,-51 -23,-76 -15,-46 -38,-98 -59,-140 -10,-21 -22,-43 -35,-65 -29,-52 -62,-86 -46,-133 4,-12 9,-19 14,-30 27,-52 48,-106 64,-162 36,-128 41,-260 41,-393 -1,-73 -12,-171 -35,-234 -16,-44 -51,-57 -98,-52 -93,10 -146,12 -233,42 -118,41 -229,98 -333,165 -50,32 -96,67 -144,101 -70,48 -72,55 -159,30 -72,-20 -142,-32 -218,-43 -51,-7 -103,-11 -159,-14 -37,-2 -130,-6 -167,-2l-291 32c-36,3 -130,29 -164,38 -53,15 -103,31 -152,49 -49,18 -96,37 -141,58 -132,61 -120,88 -236,34l-81 -34c-67,-30 -142,-56 -213,-76 -16,-4 -29,-8 -45,-12 -30,-8 -59,-15 -91,-21 -155,-25 -166,-22 -322,-5 -53,6 -99,30 -93,89l28 254c3,27 12,54 18,81 30,122 77,232 144,335 24,38 56,69 79,104 30,46 1,90 -13,137l-34 135c-13,63 -17,128 -19,193 0,14 3,27 3,41 -3,91 2,89 16,174 27,159 101,337 198,467 12,16 22,30 34,46 53,69 114,125 176,184 41,40 64,54 110,86l92 62c17,10 32,19 48,28l154 77c17,7 37,13 55,20 36,14 74,30 111,41 20,6 38,11 58,17 80,22 161,36 243,51 84,15 52,55 8,66 -22,6 -42,8 -68,11 -54,6 -86,16 -133,27 -174,38 -459,150 -605,245l-138 89c-30,19 -57,41 -86,62 -8,7 -13,11 -21,18 -40,33 -80,68 -117,105 -6,6 -12,11 -18,17 -24,25 -45,54 -70,78 -30,29 -53,70 -79,103l-30 44c-5,8 -7,13 -12,21 -27,46 -33,78 -75,82 -33,4 -175,-115 -202,-142 -111,-111 -230,-212 -291,-359 -143,-348 -235,241 195,591 32,26 70,46 106,68 152,91 150,43 166,195 7,66 56,246 73,311l118 459c26,103 43,173 137,229 37,22 88,37 134,32 65,-7 129,-39 164,-81 57,-68 72,-154 50,-240l-36 -139c-8,-29 -38,-109 13,-115 117,-12 36,184 223,270 128,58 274,-3 324,-133 23,-60 8,-87 13,-145 4,-55 52,-56 103,-72 49,-15 93,-28 139,-45 86,-32 170,-69 251,-109 70,-34 134,-88 156,-29 14,37 19,135 24,176 9,81 17,162 26,242 10,86 23,118 80,176 9,9 24,18 35,25 84,47 181,45 261,-9 55,-38 89,-96 100,-161 5,-30 5,-83 1,-120l-36 -332c-3,-25 -1,-39 -4,-64 -3,-29 -15,-89 5,-114 28,4 49,57 60,80 29,63 66,116 130,145 27,13 67,27 105,23 54,-6 88,-10 134,-40 67,-43 116,-132 106,-222 -3,-32 -17,-72 -29,-98l-211 -464c-27,-58 -79,-184 -105,-232l-62 -107c-26,-45 -129,-211 -141,-245 -9,-27 -15,-67 -18,-99 -15,-134 -25,-137 90,-179 19,-7 42,-16 62,-24 99,-45 136,-63 227,-112 50,-28 104,-65 150,-100 31,-24 63,-47 92,-74 107,-97 104,-91 198,-208 50,-62 94,-119 131,-190 38,-70 71,-142 96,-218 12,-38 25,-80 32,-121 8,-45 15,-83 20,-131 11,-131 0,-182 -15,-312z"/>
    <path class="fil1" d="M4970 1656c-5,-45 48,-120 131,-94 12,4 21,9 30,17 74,59 35,161 -49,175 -27,5 -57,-6 -78,-23l-9 -9c-19,-19 -22,-39 -25,-66z"/>
    <path class="fil1" d="M4147 1783c-3,-28 10,-54 24,-70 51,-65 162,-39 171,43 7,62 -32,111 -80,117 -62,6 -108,-30 -115,-90z"/>
    <path class="fil2" d="M3585 1543c-13,56 -11,102 15,156 10,21 19,36 35,54 49,58 106,95 192,130 26,10 161,63 171,22 7,-27 -47,-125 48,-221 42,-42 104,-72 181,-73 66,0 117,32 131,10 20,-30 -73,-127 -108,-153 -15,-12 -27,-22 -43,-33 -79,-53 -113,-70 -212,-94 -91,-22 -198,-8 -263,31 -32,20 -62,42 -86,71 -12,14 -24,27 -34,44 -10,18 -21,34 -27,56z"/>
    <path class="fil2" d="M5014 1669c3,28 6,47 25,67l9 8c21,17 51,28 78,23 83,-13 123,-116 49,-174 -9,-8 -18,-14 -31,-18 -82,-25 -135,50 -130,94z"/>
    <path class="fil2" d="M4147 1783c7,60 53,96 115,90 48,-6 87,-55 80,-117 -9,-82 -120,-108 -171,-43 -14,16 -27,42 -24,70z"/>
    <path class="fil3" d="M4814 2734c-491,75 -1088,-286 -1381,-560 432,41 836,116 1269,49 432,-67 818,-257 1225,-427 -232,460 -625,862 -1113,938z"/>
    <path class="fil2" d="M5724 1311c25,52 33,97 19,155 -6,23 -12,39 -23,61 -35,67 -83,115 -160,168 -22,15 -144,95 -162,58 -12,-25 19,-132 -94,-205 -51,-33 -117,-48 -192,-33 -66,14 -108,56 -127,38 -26,-25 44,-140 73,-173 12,-14 21,-27 35,-41 66,-69 96,-93 186,-137 85,-41 193,-51 264,-27 36,12 70,28 100,51 14,11 29,21 42,36 14,15 28,29 39,49z"/>
    <path class="fil3" d="M3999 1240c-134,-38 -263,-150 -319,-218 110,48 210,100 329,133 118,34 234,45 354,61 -96,43 -230,61 -364,24z"/>
    <path class="fil3" d="M5176 1112c123,-66 225,-203 265,-282 -97,72 -184,143 -292,201 -109,58 -219,94 -333,136 103,21 238,10 360,-55z"/>
    <path class="fil0" d="M4241 2191c106,-12 213,-23 320,-35 -9,170 -42,337 -108,500 -91,-129 -164,-282 -212,-465z"/>
    <path class="fil0" d="M4873 2142c90,-10 180,-20 269,-30 -7,143 -35,284 -90,421 -77,-109 -138,-238 -179,-391z"/>
    <path class="fil0" d="M3897 2180c66,-7 131,-14 197,-21 -6,104 -26,207 -66,307 -56,-80 -101,-174 -131,-286z"/>
    <path class="fil0" d="M5306 1957c66,-7 132,-14 197,-21 -5,104 -25,207 -66,307 -56,-79 -101,-173 -131,-286z"/>
    <path class="fil3" d="M3456 5028c23,102 -41,204 -143,228 -102,23 -204,-41 -228,-143l371 -85z"/>
    <path class="fil3" d="M3984 4761c23,103 -41,204 -143,228 -102,23 -204,-40 -228,-143l371 -85z"/>
    <path class="fil3" d="M5161 4873c12,105 -64,198 -168,210 -104,11 -198,-64 -209,-168l377 -42z"/>
    <path class="fil3" d="M5635 4210c43,96 1,208 -94,252 -95,44 -208,2 -252,-94l346 -158z"/>
    <path class="fil3" d="M4527 2052c-15,-104 58,-200 162,-214 104,-15 200,58 214,162l-376 52z"/>
   </g>
   <polygon class="fil4" points="1641,7608 1009,6747 580,7725 0,7788 899,5743 2221,7544 "/>
   <polygon id="1" class="fil4" points="2453,6596 2553,7495 2051,7550 1818,5439 3211,6555 3112,5656 3614,5601 3846,7712 "/>
   <polygon id="2" class="fil4" points="4797,5966 4935,7220 4434,7275 4296,6020 3794,6076 3739,5574 5244,5408 5299,5910 "/>
   <polygon id="3" class="fil4" points="6874,5217 6929,5719 5926,5830 5940,5955 6692,5872 6748,6374 5995,6457 6009,6582 7012,6472 7067,6974 5562,7139 5369,5383 "/>
   <polygon id="4" class="fil4" points="7595,5994 7694,6893 7192,6948 6960,4837 8353,5953 8254,5054 8756,4999 8988,7110 "/>
   <polygon id="5" class="fil4" points="10420,6580 9788,5719 9358,6697 8779,6761 9677,4715 10999,6516 "/>
   <polygon class="fil5" points="2199,9331 3077,9234 3132,9736 1752,9887 1559,8131 2061,8076 "/>
   <polygon id="1" class="fil5" points="4570,7789 4625,8291 3621,8402 3635,8527 4388,8444 4443,8946 3690,9029 3704,9154 4707,9044 4763,9546 3257,9711 3064,7955 "/>
   <polygon id="2" class="fil5" points="5753,8156 5891,9410 5390,9465 5251,8211 4749,8266 4695,7764 6200,7598 6255,8100 "/>
   <polygon id="3" class="fil5" points="6921,8375 7020,9274 6518,9330 6286,7218 7678,8335 7579,7435 8081,7380 8313,9491 "/>
   <polygon id="4" class="fil5" points="9745,8961 9113,8100 8684,9078 8104,9142 9003,7096 10325,8897 "/>
   <rect class="fil0" transform="matrix(1.68609 -0.179957 -0.760501 1.7325 9587.2 6916.76)" width="350" height="355"/>
   <rect class="fil6" transform="matrix(1.68609 -0.179957 -0.760501 1.7325 6045.68 4591.13)" width="350" height="355"/>
  </g>
  <polygon class="fil0" points="2605,2590 8334,1821 8355,1966 2626,2734 "/>
  <polygon class="fil0" points="8225,613 8629,3273 8485,3298 8081,638 "/>
  <polygon class="fil0" points="7409,504 8988,608 8982,753 7402,650 "/>
  <polygon class="fil0" points="7617,2222 9196,2326 9190,2472 7611,2368 "/>
  <polygon class="fil0" points="7783,3121 9363,3224 9357,3370 7777,3267 "/>
  <polygon class="fil0" points="7514,1392 9094,1495 9088,1641 7508,1538 "/>
 </g>
</svg>
